<svg width="316" height="480" viewBox="0 0 316 480" fill="none" xmlns="http://www.w3.org/2000/svg">
<path d="M14.1152 176.656C24.511 164.045 35.7465 151.834 47.88 140.552C51.1148 142.248 48.5286 140.897 51.7731 142.584C46.992 174.281 40.9702 206.436 33.2461 238.853C32.7385 240.99 35.1352 242.442 36.9812 241.099C38.9026 239.334 42.1298 238.268 43.1331 235.803C51.3472 200.843 54.211 165.176 58.0729 131.441C63.7023 128.402 86.8017 103.197 89.3132 111.775C93.739 118.929 63.964 235.073 86.4106 202.016C92.6454 168.679 92.6795 134.264 95.8451 102.555C101.813 100.16 123.681 80.2893 126.139 87.8581C130.235 94.5534 108.828 197.621 129.099 164.691C133.178 136.295 130.583 106.298 133.694 79.6466C140.427 77.6665 159.791 62.3133 162.988 68.8921C162.868 88.75 162.267 108.834 161.057 129.102C178.122 143.329 166.945 66.6511 171.837 61.6378C177.497 60.6872 187.603 52.0426 190.846 57.6447C191.123 70.9002 191.183 84.2469 190.969 97.7008C192.232 103.606 197.511 96.4595 199.43 94.3619C201.385 81.1569 199.101 67.206 199.008 53.9777C207.682 45.7362 225.792 46.4932 235.273 44.2185C257.589 45.0826 249.396 69.8492 249.623 90.3975C238.699 98.9572 219.878 95.2668 207.264 101.096C205.756 103.121 198.907 109.86 205.04 110.225C213.685 110.986 245.095 98.8356 247.951 105.195C246.041 111.218 247.647 122.135 242.168 126.678C234.164 130.324 159.568 132.855 175.191 145.748C195.91 143.48 217.108 140.246 238.448 136.003C240.145 135.659 241.425 137.087 240.955 138.819C237.446 147.582 236.432 161.183 229.247 168.387C209.164 171.082 188.911 173.262 170.341 174.792C158.861 177.563 143.822 172.02 135.596 182.499C133.995 184.113 134.945 186.67 137.121 186.561C165.275 185.042 194.379 181.795 223.495 176.758C231.667 178.124 211.847 203.891 209.023 210.286C172.494 217.816 134.482 213.982 99.557 217.285C97.2645 219.476 90.0937 224.446 95.896 225.94C129.202 226.014 163.919 223.763 198.495 219.049C208.372 219.729 175.011 253.35 169.704 256.219C130.84 258.255 91.735 255.662 55.1011 255.671C21.006 273.225 147.47 263.356 156.925 262.992C168.671 266.31 116.675 295.842 113.083 298.369C77.6353 298.48 43.0882 294.598 9.82855 291.22C-28.8495 305.907 82.1812 304.273 90.6387 305.08C93.3071 305.087 93.6141 308.546 91.0362 309.744C26.1663 339.876 -18.4659 332.117 -42.8213 325.773C-69.4162 340.561 -84.2197 357.322 -102.539 340.727C-108.277 320.148 -76.437 314.908 -56.1451 300.808C-49.1402 274.6 -30.2183 234.274 0.525338 193.918C2.04474 191.866 5.26639 193.256 4.69565 195.75C5.79093 204.981 -22.2388 278.47 -11.9861 274.33C5.56275 260.045 7.73785 199.56 14.0792 176.636L14.1152 176.656Z" fill="#BFB8AD"/>
<path d="M93.5008 270.935C67.351 279.459 42.8723 270.111 33.7214 268.145C32.3991 267.863 31.1696 267.246 30.1484 266.363C-7.47552 233.397 141.862 298.828 116.64 175.418C110.739 153.438 80.353 219.946 28.5988 215.409C28.131 215.362 27.6619 215.383 27.1818 215.412C19.5349 215.901 0.84842 208.471 22.1832 203.319C95.2385 189.669 104.74 137.273 104.74 137.273C108.37 127.256 91.7213 105.564 81.5161 93.5692C78.4511 89.9683 72.6278 91.1794 71.2458 95.7C62.5052 140.099 11.1444 163.335 23.4227 136.876C23.948 135.729 24.7527 134.714 25.7505 133.944C47.7982 116.838 79.6906 75.7806 34.9182 48.5551C32.325 46.5344 28.6633 47.0379 26.592 49.5841C21.2047 56.1922 9.12852 58.6904 3.84651 59.4943C3.15896 59.6061 2.49211 59.7698 1.85263 60.064C-17.3665 69.1674 -7.80853 110.688 -7.65564 109.024C-5.6207 110.179 -4.08024 133.383 -16.0192 122.689C-24.1208 115.44 -27.015 92.3265 -28.0204 78.2217C-28.1765 76.1298 -29.0818 74.1107 -30.7269 72.8257C-40.4551 65.1965 -61.0173 88.2282 -68.6804 98.4652C-68.9386 98.8018 -69.159 99.1445 -69.3557 99.5202C-78.6589 117.671 -46.4461 168.418 -41.6314 175.834C-39.19 181.789 -35.9557 204.239 -56.9651 185.508C-73.6993 170.574 -83.5602 131.644 -87.7346 111.224C-88.1342 109.258 -89.2147 107.482 -90.8794 106.378C-105.773 96.6124 -117.443 149.822 -124.253 162.399C-140.13 191.904 -32.8232 249.192 -59.4564 248.897C-96.9571 247.589 -132.01 190.774 -138.979 208.526C-151.948 269.335 -107.39 265.285 -79.3735 267.405C-78.1859 267.5 -77.0222 267.863 -75.9959 268.476C-57.564 279.396 -86.1477 285.635 -101.695 286.562C-103.586 286.673 -105.404 287.417 -106.746 288.752C-119.793 301.804 -68.7818 323.695 -48.2636 299.676C-47.2802 298.516 -45.9474 297.654 -44.4752 297.311C-36.3548 295.394 -33.9157 305.259 -25.9729 315.946C-13.2608 337.506 38.489 329.904 22.223 323.584C5.94606 317.272 -6.91805 291.797 -2.4502 285.535C1.37385 280.672 8.05637 286.14 10.9829 289.757C11.5419 290.439 11.966 291.236 12.2565 292.078C29.8242 341.415 84.3584 314.938 100.403 279.6C103.099 274.934 98.6009 269.277 93.4788 270.95L93.5008 270.935ZM-26.328 161.672C-28.4804 152.854 -25.2061 150.308 -21.7318 149.823C-18.4557 149.364 -15.2473 150.941 -13.2151 153.55C-9.08902 158.807 -1.92025 169.301 -7.56117 172.502C-17.666 177.386 -23.7748 167.296 -25.5515 163.768C-25.8805 163.103 -26.1546 162.399 -26.328 161.672ZM-22.9524 228.495C-26.8798 230.76 -40.5818 233.412 -40.9736 226.663C-40.931 219.568 -34.8255 217.753 -30.951 217.313C-29.0232 217.092 -27.0432 217.267 -25.1903 217.867C-15.3819 221.046 -20.6158 227.126 -22.9603 228.484L-22.9524 228.495ZM2.81738 182.167C6.37653 179.6 19.3594 175.696 20.3877 182.169C20.9739 188.376 16.3375 190.885 12.7097 191.899C10.027 192.648 7.13003 192.684 4.49164 191.781C-3.05762 189.21 0.832151 183.582 2.80946 182.156L2.81738 182.167ZM1.97763 261.482C-4.56136 262.859 -17.1446 264.654 -17.5147 258.19C-17.4504 248.625 -8.89186 246.459 -3.91994 246.013C-1.70546 245.818 0.528285 246.044 2.6538 246.699C9.48291 248.804 10.095 252.454 9.09034 255.483C8.04839 258.623 5.21174 260.803 1.97763 261.482Z" fill="#EE2256"/>
<path d="M91.2134 215.509C161.343 214.168 221.905 239.025 250.282 265.359C264.545 278.585 273.343 296.163 263.735 313.089C193.082 437.529 95.621 430.556 48.4357 420.548C24.4323 415.467 9.13987 400.852 -0.00902602 385.548C-8.13538 371.959 -11.8034 360.21 -11.8604 346.118C-11.8878 338.904 -11.2021 330.909 -16.3226 320.167C-20.4731 311.452 -20.7316 292.404 -20.721 287.239C-20.7192 286.256 -20.6289 285.287 -20.4502 284.331C-18.4853 274.025 -3.41769 217.333 91.2175 215.522L91.2134 215.509ZM184.148 345.262C188.983 343.403 193.338 340.2 192.309 335.977C191.404 332.261 185.791 331.779 181.675 331.889C178.115 331.985 174.497 332.802 171.294 334.592C168.908 335.918 166.568 337.86 165.911 340.571C165.046 344.108 169.387 345.72 173.157 346.397C176.703 347.034 180.56 346.645 184.161 345.258L184.148 345.262ZM130.215 383.577C144.879 387.246 160.483 379.921 158.919 372.254C157.465 364.537 157.024 358.888 137.95 353.783C137.809 353.955 108.571 349.252 102.816 362.254C96.8399 375.483 115.513 380.004 130.202 383.581L130.215 383.577ZM30.6287 362.149C17.3049 375.813 51.5277 385.945 51.7484 385.718C51.7673 386.077 106.176 394.021 63.4896 364.028C63.3248 364.082 43.416 348.646 30.6246 362.136L30.6287 362.149ZM224.839 284.608C220.963 286.056 217.357 288.285 214.619 291.367C212.581 293.674 210.851 296.581 211.333 299.692C211.966 303.735 217.494 303.782 221.998 303.055C226.223 302.376 230.316 300.479 233.66 297.661C238.144 293.869 241.481 288.88 238.406 284.876C235.721 281.335 229.335 282.957 224.843 284.62L224.839 284.608ZM143.289 277.306C142.823 277.556 142.341 277.798 141.867 278.065C135.14 281.861 129.493 292.233 133.231 296.763C137.17 301.523 149.954 295.356 153.297 294.77C156.686 294.238 166.221 286.58 162.7 276.957C159.59 268.421 146.212 275.735 143.276 277.31L143.289 277.306ZM95.4839 277.557C96.4366 276.909 97.4102 276.283 98.4048 275.678C103.356 272.841 123.337 257.914 118.722 247.821C118.582 239.788 90.9422 255.616 86.9948 257.788C87.0993 257.937 61.6227 271.712 65.663 283.269C69.2868 293.293 89.6994 281.578 95.4839 277.557ZM16.6884 274.869C6.84345 281.618 2.0096 292.202 6.39651 298.806C10.7707 305.415 23.084 305.28 33.3441 298.213C43.6083 291.158 47.6099 280.131 42.8247 273.853C38.0141 267.583 26.5415 268.145 16.6884 274.869Z" fill="#05282A"/>
<path d="M165.992 319.084C166.291 319.056 107.494 335.815 48.2844 340.702C-11.0294 347.46 -70.7722 342.337 -74.9984 341.852C-84.0883 340.991 -92.525 336.76 -92.0385 328.929C-91.7744 324.368 -87.0463 322.782 -83.1636 322.216C-80.7116 321.864 -78.2283 321.909 -75.7932 322.236C-65.159 323.616 -16.1901 330.195 36.438 327.963C88.8608 326.905 144.947 317.049 165.001 312.829C165.005 312.926 185.374 307.607 186.727 309.817C188.091 312.233 166.016 319.202 165.996 319.097L165.992 319.084Z" fill="#EE2256"/>
</svg>