<svg width="290" height="353" viewBox="0 0 290 353" fill="none" xmlns="http://www.w3.org/2000/svg">
<g clip-path="url(#clip0_270_2)">
<path d="M186.49 271.34C189.997 271.34 192.84 268.497 192.84 264.99C192.84 261.483 189.997 258.64 186.49 258.64C182.983 258.64 180.14 261.483 180.14 264.99C180.14 268.497 182.983 271.34 186.49 271.34Z" fill="#ED2156"/>
<path d="M181.4 273.67C179.32 273.67 177.59 272.42 176.58 270.25C176.4 270.28 176.21 270.29 176.03 270.29C174.1 270.29 172.95 268.8 172.12 267.45C169.88 267.16 167.94 265.5 166.71 262.79C166.32 262.89 165.92 262.94 165.52 262.94C161.4 262.94 159.7 257.82 158.33 253.7C158.01 252.74 157.71 251.84 157.42 251.12C157.16 250.47 156.79 249.49 156.68 248.4C154.92 231.38 170.33 216.14 179.8 208.49C180.43 207.31 177.23 203.47 176.16 202.19C175.48 201.38 174.95 200.74 174.62 200.22C171.22 194.66 166.6 183.59 164.58 177.12C164.25 176.06 164.03 174.95 163.94 173.82C163.37 166.91 161.4 165.16 158.91 162.95C156.81 161.09 154.44 158.98 152.7 153.86C150.79 149.77 152.06 144.58 153.28 139.55C153.77 137.53 154.23 135.62 154.48 133.86C154.75 131.9 154.08 129.94 152.68 128.61C150.21 126.26 146.45 123.96 142.81 121.73C138.67 119.19 134.39 116.56 131.59 113.66C130.98 113.02 130.16 112.49 129.01 111.98C126.16 110.72 124.47 107.49 124.8 103.94C124.93 102.58 125.63 101.32 126.73 100.48C134.85 94.2502 151.98 72.0902 150.15 65.2402L149.75 63.7302L169.75 59.2202L166.99 65.6302C166.21 67.4402 165.74 68.5402 165.39 69.2002L165.44 69.2202C163.97 73.5502 160.31 77.9502 156.44 82.6002C151.44 88.6002 146.28 94.8102 146.45 100.44C146.47 101.11 146.8 101.73 147.33 102.09C151.95 105.24 161.54 111.54 168.19 115.11C170.55 116.37 172.12 118.82 172.3 121.51C176.32 113.11 182.74 109.48 188.11 106.45C196.82 101.53 203.11 97.9702 197.28 77.9902C196.63 75.7702 196.63 73.4602 197.26 71.3002C198.59 66.8102 200.62 64.7702 202.1 63.2802C203.94 61.4402 204.7 60.6802 203.02 55.8602L202.33 53.8902L204.42 53.8702C211.24 53.7902 215.47 53.2102 217.75 52.9102C218.73 52.7802 219.39 52.6902 219.86 52.6902C221.02 52.6902 221.48 53.3202 221.65 53.6902C222.14 54.7602 221.45 55.5602 220.4 56.7702L219.81 57.4602C217.56 60.1102 216.27 63.2802 216.19 66.3802C216.12 69.0202 215.05 71.5402 214.01 73.9802C212.49 77.5502 211.05 80.9202 212.78 84.4102C213.93 87.0502 215.27 88.5202 216.49 88.5202C217.39 88.5202 218.41 87.7402 219.37 86.3202C220.75 84.2802 222.65 82.7802 224.89 81.9902C226.98 81.2402 227.79 80.2002 229.02 78.6302C229.3 78.2702 229.59 77.9002 229.91 77.5102C231.62 75.4302 234.16 74.2402 236.86 74.2402H237.11C249.64 74.5902 250.07 82.4902 250.35 87.7202C250.49 90.3702 250.62 92.6502 251.94 93.4302C253.76 94.5002 255.37 96.1502 256.74 98.3402C257.46 99.4902 258.45 101.22 259.1 102.95C259.36 103.64 259.9 104.18 260.57 104.43C269.3 107.64 272.85 113.34 270.57 120.48C270.38 121.07 270.24 121.69 270.09 122.35L269.96 122.91C268.81 127.88 265.6 129.21 263.02 130.28C261.95 130.72 260.95 131.14 260.1 131.77C257.51 133.69 254.27 134.92 250.47 135.44C243.21 136.44 239.85 140.67 238.08 151.05C238.02 151.47 237.9 152.22 237.74 153.14C237.17 156.52 236.12 162.81 236.49 165.24C236.51 165.4 236.58 165.54 236.69 165.66C237.29 166.36 238.05 167.39 238.94 168.58C241.6 172.16 246.55 178.83 249.45 178.83C249.58 178.83 249.7 178.81 249.81 178.78C252.19 178.07 254.59 177.71 256.94 177.71C260.1 177.71 263.12 178.36 265.94 179.63C266.22 179.76 266.51 179.82 266.78 179.82C266.91 179.82 267.03 179.81 267.15 179.78C267.74 179.65 268.27 179.59 268.79 179.59C272.7 179.59 275.88 182.8 275.88 186.75C275.88 189.65 274.09 192.23 271.31 193.31C270.33 193.69 269.33 193.89 268.35 193.89C265.26 193.89 262.81 191.99 262.11 189.04C262.08 188.93 261.89 188.7 261.78 188.65C260.56 188.23 259.38 188.02 258.17 188.02C257.17 188.02 256.23 188.16 255.32 188.38C256.35 189.54 257.84 191 259.38 192.52C262.96 196.05 267.02 200.05 268.73 203.35C268.8 203.49 268.92 203.61 269.07 203.68C270.97 204.64 272.33 206.37 272.79 208.44C273.26 210.51 272.78 212.66 271.48 214.34C270.18 216.02 268.2 217.02 266.04 217.09H265.83C263.39 217.09 261.11 215.79 259.84 213.73C259.7 215.03 259.19 216.28 258.36 217.34C257.03 219.03 255.02 220.01 252.83 220.05H252.73C250.07 220.05 247.61 218.51 246.44 216.13C245.44 214.09 245.45 211.78 246.46 209.78C246.44 207.69 246.02 205.85 245.31 203.41L244.86 202.15C244.74 203.06 244.43 203.72 244.17 204.26C244.06 204.49 243.96 204.7 243.88 204.91C243.91 205.02 243.95 205.15 243.99 205.26C244.59 206.85 244.5 208.43 243.75 209.82C242.82 211.54 240.94 212.83 238.6 213.36C238.09 213.48 237.56 213.53 237.04 213.53C233.95 213.53 231.16 211.46 230.27 208.5C229.27 205.21 231.21 201.18 234.42 199.87C234.95 199.65 235.51 199.5 236.09 199.43C237.09 198.13 237.47 196.53 237.15 194.99L236.85 193.48C235.71 187.75 234.42 181.25 230.72 177.78C229.14 176.3 227.94 174.61 227.15 172.75C225.68 169.29 224.44 164.67 223.63 161.62C223.43 160.88 223.26 160.25 223.13 159.77C222.78 158.79 222.63 157.77 222.52 156.95C222.5 156.82 222.48 156.68 222.46 156.53C222.23 156.72 221.95 156.98 221.59 157.33L221.53 157.39L221.47 157.44C217.17 160.88 203.12 171.16 195.26 173.23L193.65 173.59C195.93 175.08 197.39 177.63 197.46 180.39C197.62 186.65 197.98 198.6 198.6 208.35C198.79 211.32 197.52 214.21 195.21 216.09C190.81 219.67 186.14 224.2 181.61 228.58C177.92 232.16 174.1 235.85 170.49 238.97C169.37 239.94 168.93 241.48 169.38 242.89C169.99 244.84 170.35 246.27 170.47 247.39C170.73 247.36 170.99 247.35 171.26 247.35C173.6 247.35 175.79 248.5 177.11 250.44C177.33 250.77 177.53 251.11 177.69 251.46C177.96 251.42 178.23 251.4 178.5 251.4C180.19 251.4 181.93 252.2 183.84 253.84C184.83 254.69 185.51 255.82 185.76 257.01C185.84 257.38 185.88 257.76 185.9 258.15C185.96 258.15 186.02 258.15 186.08 258.15C189.97 258.15 193.08 261.23 193.17 265.15C193.23 267.92 191.57 270.54 189.04 271.68C188.09 272.11 187.1 272.32 186.08 272.32C185.75 272.32 185.42 272.3 185.09 272.25C183.99 273.18 182.71 273.69 181.41 273.69L181.4 273.67ZM252 196.49C252.51 197.47 253.04 198.46 253.56 199.41C255.13 202.32 256.62 205.07 257.31 207.29C257.35 207.41 257.42 207.59 257.56 207.71C258.07 208.17 258.5 208.68 258.85 209.25C258.85 209.18 258.87 209.12 258.87 209.05C258.89 208.88 258.87 208.8 258.87 208.78L258.71 208.35C258.22 207.01 257.87 206.05 257.2 204.81C257.01 204.46 256.84 204.09 256.69 203.73C255.92 201.94 254.06 199.21 252.01 196.5L252 196.49Z" fill="#1B6C73"/>
<path d="M219.87 54.2001C220.81 54.2001 220.19 54.7301 218.68 56.5001C216.33 59.2701 214.8 62.7201 214.7 66.3601C214.54 72.4601 208.13 78.4001 211.45 85.1001C212.93 88.5001 214.72 90.0401 216.5 90.0401C217.94 90.0401 219.37 89.0301 220.62 87.1801C221.79 85.4501 223.43 84.1201 225.4 83.4201C228.43 82.3401 229.29 80.6501 231.07 78.4801C232.5 76.7501 234.63 75.7501 236.87 75.7501C236.94 75.7501 237.01 75.7501 237.08 75.7501C254.47 76.2301 245.57 91.4301 251.19 94.7301C252.98 95.7801 254.38 97.3801 255.47 99.1401C256.36 100.57 257.18 102.11 257.7 103.48C258.11 104.57 258.96 105.43 260.05 105.83C266.63 108.25 271.49 112.66 269.14 120.02C268.87 120.85 268.7 121.72 268.5 122.57C267.1 128.64 262.47 128.14 259.21 130.56C256.61 132.48 253.47 133.51 250.26 133.95C241.81 135.11 238.36 140.46 236.6 150.79C236.29 153.05 234.49 162.12 235.01 165.46C235.08 165.89 235.26 166.29 235.55 166.63C238.19 169.72 244.79 180.32 249.45 180.32C249.72 180.32 249.98 180.29 250.23 180.21C252.49 179.54 254.74 179.2 256.95 179.2C259.86 179.2 262.69 179.79 265.33 180.98C265.79 181.19 266.29 181.31 266.79 181.31C267.03 181.31 267.26 181.28 267.5 181.23L267.57 181.21C267.98 181.12 268.4 181.07 268.81 181.07C271.77 181.07 274.4 183.44 274.4 186.73C274.4 189.05 272.95 191.05 270.78 191.89C269.96 192.21 269.14 192.36 268.36 192.36C266.09 192.36 264.15 191.05 263.58 188.66C263.44 188.07 262.87 187.41 262.3 187.21C260.8 186.69 259.44 186.5 258.19 186.5C256.15 186.5 254.4 187.02 252.81 187.52C254.59 190.69 264.63 198.66 267.41 204.02C267.63 204.45 267.98 204.79 268.41 205C269.85 205.72 270.96 207.06 271.35 208.75C272.11 212.12 269.66 215.46 266.02 215.57C265.97 215.57 265.91 215.57 265.86 215.57C263.77 215.57 261.8 214.32 260.88 212.43C260.36 211.36 260.23 210.26 260.37 209.22C260.42 208.89 260.4 208.54 260.28 208.23C259.71 206.68 259.32 205.54 258.52 204.06C258.35 203.75 258.2 203.42 258.06 203.1C256.36 199.15 250.23 191.67 247.6 188.69C247.65 193.51 254.27 202.56 255.88 207.71C256.01 208.12 256.23 208.51 256.56 208.8C257.39 209.54 258 210.54 258.26 211.71C259.03 215.11 256.52 218.48 252.83 218.53C252.8 218.53 252.78 218.53 252.75 218.53C250.68 218.53 248.72 217.31 247.81 215.45C246.97 213.72 247.07 211.9 247.83 210.41C247.92 210.23 247.98 210.02 247.98 209.82C247.96 207.59 247.54 205.63 246.77 202.97L242.18 190.22C242.49 192.98 243.59 198.12 243.42 201.61C243.35 202.98 242.69 203.6 242.38 204.71C242.31 204.97 242.61 205.77 242.61 205.77C243.77 208.88 241.3 211.19 238.29 211.87C237.88 211.96 237.46 212.01 237.05 212.01C234.63 212.01 232.43 210.43 231.71 208.05C230.93 205.48 232.5 202.26 234.99 201.24C235.45 201.05 235.92 200.94 236.38 200.88C236.74 200.84 237.05 200.62 237.27 200.34L237.29 200.31C238.54 198.71 239.03 196.65 238.62 194.67C237.37 188.48 236.15 180.79 231.74 176.66C230.37 175.38 229.26 173.86 228.53 172.14C226.72 167.89 225.23 161.65 224.55 159.28C223.76 157.16 224.13 154.52 223.01 154.52C222.53 154.52 221.77 155.01 220.53 156.24C214.9 160.74 201.87 169.91 194.87 171.75L189.09 173.05L191.89 174.3C194.31 175.38 195.89 177.75 195.95 180.4C196.17 189.08 196.54 199.79 197.1 208.42C197.26 210.92 196.2 213.32 194.26 214.9C186.19 221.47 177.48 230.92 169.51 237.81C167.94 239.17 167.32 241.33 167.95 243.31C169.2 247.27 169.18 248.59 168.73 249.42C169.53 249.01 170.4 248.81 171.26 248.81C173.04 248.81 174.79 249.66 175.87 251.24C176.29 251.86 176.57 252.54 176.72 253.24C177.26 253.02 177.84 252.86 178.49 252.86C179.64 252.86 181.02 253.36 182.85 254.93C183.56 255.54 184.09 256.36 184.28 257.27C184.47 258.18 184.42 259.09 184.19 259.93C184.4 259.85 184.62 259.79 184.84 259.74C185.25 259.65 185.67 259.6 186.07 259.6C188.99 259.6 191.59 261.91 191.66 265.13C191.71 267.31 190.4 269.37 188.41 270.26C187.63 270.61 186.84 270.77 186.07 270.77C185.57 270.77 185.08 270.7 184.61 270.57C183.67 271.58 182.52 272.13 181.4 272.13C179.76 272.13 178.19 270.94 177.48 268.29C176.94 268.62 176.46 268.76 176.04 268.76C174.63 268.76 173.76 267.25 173.01 265.96C172.95 265.96 172.89 265.96 172.84 265.96C170.52 265.96 168.91 264 168.04 262.02C167.82 261.53 167.33 261.24 166.8 261.24C166.68 261.24 166.55 261.26 166.43 261.29C166.12 261.37 165.82 261.41 165.54 261.41C161.69 261.41 160.31 254.15 158.83 250.52C158.53 249.78 158.28 249.01 158.19 248.21C156.61 232.94 169.83 218.42 180.92 209.5C183.06 206.88 177.11 201.29 175.91 199.39C172.69 194.13 168.14 183.37 166.03 176.65C165.73 175.69 165.53 174.69 165.45 173.68C164.35 160.26 157.77 164.21 154.11 153.28C151.65 148.14 155.12 140.26 155.97 134.05C156.3 131.63 155.49 129.2 153.72 127.51C148.32 122.37 137.78 117.9 132.69 112.6C131.83 111.71 130.77 111.09 129.63 110.59C127.21 109.53 126.06 106.75 126.31 104.07C126.4 103.12 126.9 102.24 127.66 101.66C135.6 95.5701 153.74 72.7801 151.62 64.8401L167.23 61.3201L164.04 68.7201C160.74 78.4301 144.63 89.8101 144.97 100.47C145.01 101.61 145.56 102.67 146.5 103.31C151.83 106.95 161.16 113.01 167.49 116.41C169.43 117.45 170.69 119.44 170.82 121.64L171.27 129.05C178.39 98.9301 209.66 115 198.73 77.5401C198.17 75.6401 198.15 73.6001 198.71 71.7001C201.62 61.8601 207.87 65.1801 204.45 55.3401C214.05 55.2301 218.54 54.1501 219.87 54.1501M219.87 51.1501C219.29 51.1501 218.64 51.2401 217.56 51.3901C215.32 51.7001 211.14 52.2601 204.42 52.3401L200.25 52.3901L201.62 56.3301C202.99 60.2601 202.62 60.6301 201.06 62.2001C199.55 63.7101 197.28 65.9901 195.84 70.8501C195.12 73.2801 195.13 75.8901 195.86 78.3801C201.36 97.2201 195.8 100.36 187.39 105.11C182.54 107.85 176.87 111.05 172.73 117.61C171.87 116 170.55 114.64 168.92 113.76C162.33 110.22 152.79 103.96 148.2 100.83C148.06 100.74 147.98 100.57 147.97 100.37C147.81 95.3101 152.79 89.3201 157.61 83.5401C161.55 78.8001 165.28 74.3301 166.85 69.7601C166.88 69.7001 166.9 69.6501 166.93 69.5901L167.29 68.7501L168.39 66.2101L169.99 62.5101L172.32 57.1001L166.57 58.4001L150.96 61.9201L147.92 62.6101L148.72 65.6201C149.12 67.1301 147.94 72.3301 140.96 82.2201C135.43 90.0501 129.17 96.7301 125.83 99.2801C124.4 100.37 123.49 102.02 123.32 103.79C122.93 107.98 124.97 111.82 128.42 113.34C129.38 113.76 130.05 114.19 130.52 114.68C133.44 117.72 137.81 120.4 142.03 122.99C145.6 125.18 149.29 127.44 151.65 129.68C152.7 130.68 153.2 132.15 153 133.64C152.77 135.33 152.31 137.2 151.83 139.18C150.55 144.43 149.24 149.85 151.32 154.4C153.18 159.85 155.81 162.18 157.93 164.06C160.26 166.12 161.94 167.61 162.46 173.93C162.56 175.16 162.8 176.38 163.16 177.55C165.25 184.24 169.84 195.24 173.34 200.96C173.74 201.6 174.31 202.27 175.02 203.12C175.75 204 177.83 206.49 178.29 207.77C168.55 215.76 153.42 231.15 155.21 248.52C155.34 249.8 155.75 250.92 156.05 251.65C156.32 252.32 156.62 253.2 156.93 254.14C158.37 258.47 160.34 264.41 165.54 264.41C165.65 264.41 165.76 264.41 165.88 264.41C167.2 266.76 169.07 268.29 171.23 268.79C172.17 270.17 173.54 271.62 175.71 271.76C177.21 274.21 179.48 275.15 181.41 275.15C182.86 275.15 184.29 274.67 185.54 273.77C185.72 273.78 185.9 273.79 186.08 273.79C187.31 273.79 188.51 273.53 189.65 273.01C192.72 271.63 194.73 268.44 194.66 265.08C194.57 260.72 191.39 257.23 187.22 256.68C186.9 255.15 186.05 253.73 184.81 252.66C182.64 250.79 180.59 249.87 178.55 249.86C178.49 249.76 178.42 249.65 178.35 249.55C176.84 247.34 174.4 245.97 171.74 245.82C171.53 244.81 171.21 243.68 170.81 242.4C170.55 241.56 170.81 240.65 171.47 240.07C175.11 236.92 178.94 233.21 182.65 229.62C187.15 225.26 191.8 220.76 196.15 217.22C198.84 215.03 200.31 211.67 200.09 208.22C199.47 198.48 199.11 186.56 198.95 180.32C198.89 178.1 198.08 175.99 196.71 174.32C204.4 171.8 216.46 163.19 221.44 159.33C221.51 159.61 221.6 159.9 221.7 160.19C221.83 160.66 221.99 161.27 222.18 161.97C223.01 165.07 224.25 169.75 225.77 173.3C226.64 175.35 227.96 177.21 229.69 178.83C233.04 181.97 234.28 188.22 235.38 193.73C235.48 194.24 235.58 194.75 235.68 195.24C235.87 196.2 235.7 197.19 235.21 198.02C234.74 198.12 234.29 198.26 233.85 198.44C229.9 200.05 227.61 204.84 228.84 208.9C229.93 212.49 233.3 214.99 237.05 214.99C237.68 214.99 238.32 214.92 238.95 214.78C241.19 214.28 243.08 213.16 244.32 211.63C244.06 213.34 244.32 215.12 245.12 216.75C246.53 219.65 249.53 221.52 252.75 221.52H252.87C255.51 221.48 257.94 220.29 259.55 218.24C259.93 217.75 260.26 217.23 260.53 216.69C262.02 217.88 263.89 218.57 265.84 218.57C265.92 218.57 266.01 218.57 266.09 218.57C268.69 218.49 271.09 217.28 272.67 215.24C274.25 213.2 274.83 210.6 274.26 208.09C273.71 205.66 272.14 203.6 269.95 202.42C268.08 198.96 264.02 194.96 260.44 191.42C259.8 190.79 259.13 190.13 258.5 189.49C259.26 189.52 260.02 189.64 260.8 189.87C261.83 193.22 264.74 195.35 268.36 195.35C269.53 195.35 270.71 195.12 271.87 194.67C275.23 193.36 277.4 190.24 277.4 186.71C277.4 181.94 273.55 178.05 268.81 178.05C268.18 178.05 267.54 178.12 266.91 178.26L266.83 178.28C266.83 178.28 266.82 178.28 266.81 178.28C266.76 178.28 266.68 178.27 266.58 178.22C263.57 176.86 260.34 176.17 256.96 176.17C254.49 176.17 251.96 176.55 249.45 177.29C249.31 177.28 248.15 177.08 245.6 174.41C243.65 172.37 241.71 169.75 240.15 167.65C239.31 166.51 238.57 165.52 237.96 164.79C237.7 162.44 238.77 156.1 239.23 153.35C239.38 152.44 239.51 151.69 239.57 151.21C241.23 141.53 244.14 137.78 250.68 136.88C254.74 136.32 258.21 134.99 261 132.93C261.7 132.41 262.63 132.03 263.6 131.62C266.34 130.48 270.1 128.92 271.43 123.2L271.56 122.63C271.7 122.01 271.83 121.41 272 120.89C274.53 112.98 270.56 106.45 261.09 102.97C260.82 102.87 260.62 102.66 260.51 102.37C259.81 100.53 258.77 98.7101 258.02 97.5001C256.52 95.1001 254.74 93.2801 252.71 92.0901C252.08 91.7201 251.95 89.3401 251.86 87.5901C251.57 82.1601 251.08 73.0801 237.16 72.7001C237.06 72.7001 236.96 72.7001 236.87 72.7001C233.72 72.7001 230.76 74.0901 228.76 76.5201C228.43 76.9201 228.13 77.3001 227.84 77.6701C226.66 79.1801 226.07 79.9401 224.39 80.5401C221.85 81.4501 219.69 83.1401 218.13 85.4501C217.27 86.7301 216.62 86.9901 216.5 86.9901C216.31 86.9901 215.32 86.4301 214.2 83.8501L214.17 83.7801L214.14 83.7101C212.79 80.9801 213.74 78.4401 215.4 74.5301C216.49 71.9601 217.62 69.3101 217.7 66.3801C217.77 63.6201 218.93 60.7801 220.96 58.3901C221.17 58.1401 221.37 57.9101 221.54 57.7101C222.65 56.4301 223.91 54.9801 223.02 53.0301C222.76 52.4601 221.94 51.1501 219.86 51.1501H219.87Z" fill="#071314"/>
<path d="M238.325 88.585C243.578 88.0478 247.475 84.0892 247.031 79.7433C246.586 75.3974 241.968 72.3099 236.716 72.8471C231.463 73.3843 227.566 77.3429 228.01 81.6888C228.455 86.0347 233.073 89.1222 238.325 88.585Z" fill="#071314"/>
<path d="M264.967 129.022C269.575 126.445 271.583 121.265 269.451 117.452C267.319 113.639 261.855 112.637 257.246 115.213C252.638 117.79 250.63 122.97 252.762 126.783C254.894 130.596 260.358 131.598 264.967 129.022Z" fill="#071314"/>
<path d="M241.359 104.909C242.071 104.17 242.269 103.203 241.799 102.751C241.33 102.299 240.372 102.532 239.659 103.272C238.946 104.012 238.749 104.978 239.218 105.43C239.688 105.882 240.646 105.649 241.359 104.909Z" fill="#071314"/>
<path d="M245.292 111.229C246.267 110.906 246.892 110.143 246.688 109.524C246.483 108.906 245.527 108.665 244.551 108.988C243.576 109.31 242.951 110.073 243.156 110.692C243.36 111.311 244.317 111.551 245.292 111.229Z" fill="#071314"/>
<path d="M236.12 77.7502C235.8 76.3202 239.36 75.8602 241.11 76.4902C241.66 76.6902 241.66 77.5002 241.13 77.7502C239.6 78.4702 238.84 78.9402 236.56 78.2602C236.21 78.1602 236.12 77.7502 236.12 77.7502Z" fill="white"/>
<path d="M261.132 118.115C262.167 117.881 262.916 117.294 262.805 116.804C262.694 116.314 261.766 116.106 260.732 116.339C259.697 116.573 258.948 117.159 259.059 117.65C259.17 118.14 260.098 118.348 261.132 118.115Z" fill="white"/>
<path d="M262.756 125.271C263.537 125.095 264.102 124.651 264.018 124.279C263.934 123.907 263.233 123.749 262.452 123.925C261.671 124.101 261.105 124.546 261.189 124.917C261.273 125.289 261.975 125.448 262.756 125.271Z" fill="white"/>
<path d="M217.63 115.75C217.63 115.48 217.17 115.55 217.14 115.82C216.9 117.97 216.45 119.22 215.36 120C215.03 120.23 215.16 120.72 215.56 120.78C217.16 121.02 218.45 121.89 219.4 122.78C219.52 122.9 219.71 122.75 219.63 122.6C218.89 121.15 217.65 118.36 217.63 115.74V115.75Z" fill="#071314"/>
<path d="M143.72 92.1702C142.58 86.9902 151.24 79.5102 155.89 74.7902C156.07 74.6102 156.36 74.8202 156.26 75.0502C153.71 80.6302 150.2 85.7402 145.92 90.1302C145.39 90.6702 144.89 91.2502 144.5 91.9002C144.22 92.3602 143.86 92.7702 143.73 92.1702H143.72Z" fill="#071314"/>
<path d="M206.28 74.9501C205.59 72.4601 209.03 69.1801 209.92 66.8101C210.22 66.0301 209.79 64.6001 210.72 64.3601C211.65 64.1201 211.48 66.1801 211.47 67.1001C211.32 69.6801 210.16 72.1501 208.21 73.8401C207.91 74.1001 207.58 74.3001 207.23 74.4801C207.23 74.4801 206.55 75.9101 206.29 74.9501H206.28Z" fill="#071314"/>
<path d="M170.94 229.46C171.68 225.74 179 221.07 183.72 219.26C184.06 219.13 184.35 219.56 184.09 219.82C180.54 223.34 176.69 226.45 172.33 228.95C172.33 228.95 170.75 230.38 170.93 229.46H170.94Z" fill="#071314"/>
<path d="M190.82 213.8C189.85 211.21 191.34 207.32 191.96 204.6C192.03 204.3 192.43 204.25 192.58 204.51C194.06 207 193.54 210.45 191.9 212.75C191.9 212.75 190.92 214.09 190.82 213.8Z" fill="#071314"/>
<path d="M241.77 178.42C241.79 178.62 241.31 178.6 241.09 178.56C239.86 178.38 238.83 177.63 238.08 176.77C237.23 175.74 236.6 174.49 236.67 173.19C236.71 172.45 237.87 173.84 238.35 174.22C239.36 175.06 240.11 176.07 240.82 177.14C240.98 177.38 241.16 177.61 241.36 177.82C241.54 178.02 241.75 178.27 241.77 178.43V178.42Z" fill="#071314"/>
<path d="M183.84 204.25C182.94 203.29 169.31 188.28 168.51 165.6C168.51 165.55 168.51 165.5 168.49 165.45C167.83 162.66 165.84 161.81 164.52 161.55C163.35 161.32 162.3 160.66 161.53 159.75C158.83 156.57 154.5 148.59 159.33 132.99C159.42 132.7 159.69 132.5 160 132.5L165.24 132.57C165.93 132.57 166.2 131.67 165.61 131.31C160.77 128.31 148.85 120.84 143.97 117.03C143.39 116.57 143.84 115.65 144.56 115.83C145.76 116.15 147.2 116.47 148.51 116.64C148.93 116.69 149.3 116.36 149.27 115.94C149.2 114.86 148.8 112.77 147.01 110.5C146.55 109.92 147.17 109.11 147.83 109.45C154.25 112.75 165.39 118.84 166.94 122.14C166.94 122.14 169.61 128.1 170.81 137.74C170.9 138.44 171.85 138.56 172.12 137.91C174.5 131.97 181.2 118.04 193.04 113.49C205.34 108.77 203.08 87.4502 201.77 79.4802C201.65 78.7602 202.59 78.3802 203 78.9802C205.44 82.5502 209.7 89.3402 211.57 95.6502C211.57 95.6502 213.26 101.65 216.46 96.9802C216.46 96.9802 219.6 92.1602 221.18 90.8502C221.51 90.5802 222 90.7002 222.2 91.0702C224.28 95.0002 237.86 119.64 249.16 130.89C249.56 131.29 249.44 132.4 248.88 132.47C245.14 132.96 235.9 136.17 236.07 142.85C236.26 150.47 233.61 157.08 233.19 158.08C233.15 158.17 233.1 158.25 233.02 158.31C232.19 159.03 227.21 162.69 227.09 147.13C227.09 146.53 226.36 146.22 225.93 146.65C221.4 151.25 204.29 167.63 187.13 171.35C186.61 171.46 186.4 172.09 186.77 172.47C188.44 174.25 195.86 177.74 193.88 181.47C192.92 183.29 192.51 185.35 192.32 187.4C191.5 196.43 189.12 214.94 183.9 204.32C183.88 204.27 183.85 204.23 183.82 204.2L183.84 204.25Z" fill="#093A3E"/>
<path d="M197.88 137.22C197.53 136.76 201.54 135.14 203.02 135.55C205.03 136.12 201.51 137.87 198.54 137.48C198.54 137.48 197.98 137.35 197.88 137.21V137.22Z" fill="#ED2156"/>
<path d="M189.35 141.21C189.75 141.68 189.61 142.86 188.77 143.37C187.89 143.9 187.8 141.94 188.71 141.48C188.87 141.4 189.24 141.08 189.35 141.21Z" fill="#ED2156"/>
<path d="M189.76 132.26C190.93 131.56 191.75 136.29 190.34 135.81C189.12 135.4 189.44 134.38 189.65 132.97C189.65 132.97 189.6 132.35 189.76 132.26Z" fill="#ED2156"/>
<path d="M196.52 141.94C197.47 141.64 199.11 141.38 199.8 142.52C200.57 143.81 197.76 143.51 196.95 142.55C196.95 142.55 196.37 141.98 196.52 141.93V141.94Z" fill="#ED2156"/>
<path d="M199.34 148.58C198.77 147.13 201.94 146.16 202.55 147.36C203.16 148.56 201.04 147.24 200.61 148.21C200.33 148.84 199.57 149.16 199.34 148.58Z" fill="#ED2156"/>
<path d="M192.24 145.2C193.38 144.49 194.49 146.93 194.27 148.07C194.01 149.43 192.98 147.16 192.26 146.3C192.09 146.09 192.09 145.3 192.24 145.21V145.2Z" fill="#ED2156"/>
<path d="M193.73 154.5C193.73 153.39 194.92 153.77 195.73 154.53C196.64 155.38 194.76 155.73 194.29 154.98C194.19 154.82 193.73 155.2 193.73 154.5Z" fill="#ED2156"/>
<path d="M184.43 157.33C183.33 156.66 186.61 153.21 187.08 154.58C187.49 155.79 186.01 155.14 185.31 156.84C185.11 157.33 184.6 157.43 184.43 157.33Z" fill="#ED2156"/>
<path d="M176.89 155.01C177.45 155.91 176.57 156.69 177.1 157.54C177.26 157.84 178.07 158.53 177.62 158.62C177.4 158.66 177.31 158.51 177.12 158.47C175.21 158.23 175.36 153.59 176.4 154.58C176.44 154.62 176.8 154.87 176.89 155.02V155.01Z" fill="#ED2156"/>
<path d="M178.58 146.93C178.69 148.13 180.12 149.58 179.32 150.3C179.14 150.46 179.1 150.26 178.92 149.86C178.37 148.64 177.45 147.84 177.68 146.6C177.75 146.42 177.72 146.15 177.95 146.13C178.21 146.11 178.52 146.34 178.58 146.95V146.93Z" fill="#ED2156"/>
<path d="M182.99 147.97C182.61 147.99 182.76 147.41 182.96 147.29C183.43 146.91 184.18 146.99 184.09 147.72C184.02 148.27 183.48 148.43 183.28 148.16C183.26 148.03 183.19 147.75 182.98 147.97H182.99Z" fill="#ED2156"/>
<path d="M188.72 148.08C189.81 147.15 191.83 152.67 190.38 152.83C188.93 152.99 189.23 150.73 188.92 149.28C188.86 148.98 188.49 148.28 188.73 148.08H188.72Z" fill="#ED2156"/>
<path d="M221.78 89.8402C223.93 98.3302 232.09 119.1 249.12 131.59C249.6 131.95 250.25 131.33 249.86 130.89C243.24 123.96 228.93 105.11 222.38 89.6102C222.22 89.2602 221.68 89.4502 221.78 89.8302V89.8402Z" fill="#071314"/>
<path d="M225.5 106.34C226.76 109.72 227.44 117.18 236.9 124.09C237.11 124.24 237.41 124.03 237.27 123.82C234.86 120.41 229.16 112.19 225.77 106.23C225.69 106.09 225.45 106.19 225.51 106.34H225.5Z" fill="#071314"/>
<path d="M237.01 213.18C240.655 213.18 243.61 210.225 243.61 206.58C243.61 202.935 240.655 199.98 237.01 199.98C233.365 199.98 230.41 202.935 230.41 206.58C230.41 210.225 233.365 213.18 237.01 213.18Z" fill="#ED2156"/>
<path d="M252.82 219.57C256.327 219.57 259.17 216.727 259.17 213.22C259.17 209.713 256.327 206.87 252.82 206.87C249.313 206.87 246.47 209.713 246.47 213.22C246.47 216.727 249.313 219.57 252.82 219.57Z" fill="#ED2156"/>
<path d="M266.22 216.55C269.727 216.55 272.57 213.707 272.57 210.2C272.57 206.693 269.727 203.85 266.22 203.85C262.713 203.85 259.87 206.693 259.87 210.2C259.87 213.707 262.713 216.55 266.22 216.55Z" fill="#ED2156"/>
<path d="M268.7 193.01C272.207 193.01 275.05 190.167 275.05 186.66C275.05 183.153 272.207 180.31 268.7 180.31C265.193 180.31 262.35 183.153 262.35 186.66C262.35 190.167 265.193 193.01 268.7 193.01Z" fill="#ED2156"/>
<path d="M-223.81 155.18L-170.48 154.21C-170.15 154.21 -169.81 154.25 -169.5 154.34L-124.59 167.71C-124.28 167.8 -123.99 167.94 -123.72 168.12L-90.01 190.54C-89.53 190.86 -88.97 191.04 -88.4 191.08L-36.8 194.06C-36.47 194.08 -36.14 194.05 -35.81 193.97L14.15 181.25C14.49 181.16 14.82 181.02 15.12 180.82L55.6 154.45C56.09 154.13 56.48 153.69 56.74 153.16L78.19 109.53C78.3 109.31 78.43 109.11 78.58 108.92L111.91 67.7301C112.43 67.0901 113.16 66.6701 113.97 66.5601L186.43 56.2301C186.49 56.2301 186.56 56.2101 186.62 56.2101L232.87 49.3201C233.27 49.2901 233.67 49.1801 234.03 49.0001L252.26 40.0701C252.89 39.7601 253.41 39.2501 253.73 38.6201L272.41 1.78006C273.45 -0.279942 276.25 -0.619942 277.76 1.12006L285.67 10.2701C286.09 10.7501 286.36 11.3501 286.43 11.9901L288.76 30.5801C288.8 30.8901 288.79 31.2001 288.74 31.5101L284.73 55.9001C284.62 56.5801 284.73 57.2801 285.04 57.8901L289.06 65.8501C289.97 67.6501 271.5 67.6401 269.57 68.2201L233.99 63.7601L173.03 73.1401C172.83 73.1901 150.18 76.2001 149.98 76.2101L133.84 79.2801C132.88 79.3501 114.42 104.62 113.86 105.41L103.1 122.35C103.02 122.46 99.32 135.08 99.26 135.2L86.2 153.04C86.16 153.11 83.17 166.44 83.13 166.51L84.83 178.96C84.2 179.95 84.15 181.21 84.71 182.24L93.32 198.22C93.51 198.57 93.76 198.88 94.06 199.14L122.57 223.74C122.69 223.85 122.82 223.94 122.96 224.03L180.88 260.49C181.11 260.63 181.32 260.81 181.51 261L197.75 278.15C198.04 278.46 198.27 278.82 198.42 279.21L209.49 307.76C209.94 308.93 209.69 310.25 208.83 311.16C204.16 316.11 189.34 331.47 188.2 328.71C187.06 325.95 187.23 305.03 187.31 298.7C187.32 297.57 186.75 296.52 185.79 295.92L151.8 274.55C151.69 274.48 151.58 274.42 151.47 274.37L116.98 257.9C116.55 257.7 116.18 257.4 115.88 257.04L85.53 220.27C85.15 219.82 84.66 219.47 84.11 219.28L68.77 213.88C68.22 213.68 67.62 213.64 67.05 213.76L48.22 217.59C47.93 217.65 47.6501 217.75 47.39 217.88L5.99002 239.1C5.81003 239.19 5.63002 239.26 5.44002 239.32L-61.98 259.55C-62.3 259.65 -62.64 259.69 -62.97 259.69L-105.51 258.92C-105.89 258.92 -106.26 258.84 -106.62 258.7L-146.88 243.2C-147.33 243.03 -147.73 242.76 -148.06 242.41L-226.1 160.67C-228.05 158.63 -226.64 155.24 -223.81 155.19V155.18Z" fill="black"/>
<path d="M147.22 65.0702C143.65 65.0702 140.6 62.5202 139.96 59.0102C139.61 57.0702 140.03 55.1102 141.15 53.4902C142.27 51.8702 143.96 50.7802 145.9 50.4302C146.34 50.3502 146.78 50.3102 147.23 50.3102C147.8 50.3102 148.37 50.3802 148.92 50.5102C149.81 48.1102 151.91 46.2702 154.52 45.8002C154.96 45.7202 155.41 45.6802 155.85 45.6802C158.24 45.6802 160.41 46.8302 161.77 48.6702C162.78 47.7602 164.02 47.1402 165.38 46.8902C165.82 46.8102 166.27 46.7702 166.71 46.7702C170.28 46.7702 173.33 49.3202 173.97 52.8302C174.7 56.8302 172.03 60.6902 168.03 61.4202C167.59 61.5002 167.15 61.5402 166.7 61.5402C164.31 61.5402 162.14 60.3902 160.78 58.5502C159.77 59.4602 158.53 60.0802 157.17 60.3302C156.73 60.4102 156.29 60.4502 155.84 60.4502C155.27 60.4502 154.7 60.3802 154.15 60.2502C153.26 62.6502 151.16 64.4902 148.55 64.9602C148.11 65.0402 147.66 65.0802 147.22 65.0802V65.0702Z" fill="#1B6C73"/>
<path d="M155.85 47.2301C158.47 47.2301 160.81 49.0101 161.47 51.6001C162.25 49.9901 163.76 48.7601 165.66 48.4201C166.01 48.3601 166.36 48.3201 166.71 48.3201C169.47 48.3201 171.92 50.2901 172.43 53.1001C173.01 56.2601 170.91 59.2901 167.75 59.8701C167.4 59.9301 167.05 59.9601 166.7 59.9601C164.08 59.9601 161.74 58.1801 161.08 55.5901C160.3 57.2001 158.79 58.4301 156.89 58.7701C156.54 58.8301 156.19 58.8701 155.84 58.8701C154.83 58.8701 153.87 58.6101 153.02 58.1401C152.82 60.7101 150.92 62.9301 148.27 63.4101C147.92 63.4701 147.57 63.5101 147.22 63.5101C144.46 63.5101 142.01 61.5401 141.5 58.7301C140.92 55.5701 143.02 52.5401 146.18 51.9601C146.53 51.9001 146.88 51.8701 147.23 51.8701C148.24 51.8701 149.2 52.1301 150.05 52.6001C150.25 50.0301 152.15 47.8101 154.8 47.3301C155.15 47.2701 155.5 47.2401 155.85 47.2401M155.85 44.1101C155.31 44.1101 154.77 44.1601 154.24 44.2601C151.52 44.7501 149.26 46.4601 147.99 48.7801C147.74 48.7601 147.48 48.7501 147.22 48.7501C146.68 48.7501 146.14 48.8001 145.61 48.9001C143.26 49.3301 141.22 50.6501 139.86 52.6101C138.5 54.5701 137.99 56.9501 138.41 59.3001C139.18 63.5601 142.88 66.6501 147.2 66.6501C147.74 66.6501 148.28 66.6001 148.81 66.5001C151.53 66.0101 153.79 64.3001 155.06 61.9801C155.31 62.0001 155.57 62.0101 155.83 62.0101C156.37 62.0101 156.91 61.9601 157.44 61.8601C158.56 61.6601 159.61 61.2401 160.56 60.6501C162.18 62.1801 164.35 63.0901 166.69 63.0901C167.23 63.0901 167.77 63.0401 168.3 62.9401C173.15 62.0601 176.38 57.3901 175.5 52.5401C174.73 48.2801 171.03 45.1901 166.71 45.1901C166.17 45.1901 165.63 45.2401 165.1 45.3401C163.98 45.5401 162.93 45.9601 161.98 46.5501C160.36 45.0201 158.19 44.1101 155.85 44.1101Z" fill="#071314"/>
<path d="M148.04 64.3401C151.696 64.3401 154.66 61.3762 154.66 57.7201C154.66 54.064 151.696 51.1001 148.04 51.1001C144.384 51.1001 141.42 54.064 141.42 57.7201C141.42 61.3762 144.384 64.3401 148.04 64.3401Z" fill="#ED2156"/>
<path d="M156.09 60.4399C159.746 60.4399 162.71 57.4761 162.71 53.82C162.71 50.1638 159.746 47.2 156.09 47.2C152.434 47.2 149.47 50.1638 149.47 53.82C149.47 57.4761 152.434 60.4399 156.09 60.4399Z" fill="#ED2156"/>
<path d="M166.15 61.3401C169.806 61.3401 172.77 58.3762 172.77 54.7201C172.77 51.064 169.806 48.1001 166.15 48.1001C162.494 48.1001 159.53 51.064 159.53 54.7201C159.53 58.3762 162.494 61.3401 166.15 61.3401Z" fill="#ED2156"/>
<path d="M223.96 58.1501C223.77 58.1501 223.57 58.1501 223.38 58.1301C220.52 57.9101 218.13 56.0401 217.11 53.5101C216.08 54.0401 214.92 54.3301 213.74 54.3301C213.55 54.3301 213.36 54.3301 213.16 54.3101C212.14 54.2301 211.15 53.9401 210.26 53.4601C208.9 55.4001 206.66 56.6101 204.22 56.6101C204.03 56.6101 203.84 56.6101 203.64 56.5901C199.58 56.2701 196.54 52.7101 196.85 48.6601C197.15 44.8401 200.38 41.8501 204.2 41.8501C204.39 41.8501 204.59 41.8501 204.78 41.8701C205.8 41.9501 206.79 42.2401 207.68 42.7201C209.04 40.7801 211.28 39.5701 213.72 39.5701C213.91 39.5701 214.1 39.5701 214.3 39.5901C217.16 39.8101 219.55 41.6801 220.57 44.2101C221.6 43.6801 222.76 43.3901 223.94 43.3901C224.13 43.3901 224.32 43.3901 224.52 43.4101C228.58 43.7301 231.62 47.2901 231.31 51.3401C231.01 55.1601 227.78 58.1501 223.96 58.1501Z" fill="#1B6C73"/>
<path d="M213.73 41.13C213.88 41.13 214.03 41.13 214.19 41.15C217.25 41.39 219.57 43.96 219.55 46.98C220.62 45.73 222.21 44.95 223.95 44.95C224.1 44.95 224.25 44.95 224.41 44.97C227.61 45.22 230.01 48.02 229.76 51.22C229.52 54.27 226.97 56.59 223.96 56.59C223.81 56.59 223.66 56.59 223.5 56.57C220.44 56.33 218.12 53.76 218.14 50.74C217.07 51.99 215.48 52.77 213.74 52.77C213.59 52.77 213.44 52.77 213.28 52.75C211.88 52.64 210.64 52.05 209.7 51.15C208.9 53.45 206.72 55.05 204.22 55.05C204.07 55.05 203.92 55.05 203.76 55.03C200.56 54.78 198.16 51.98 198.41 48.78C198.65 45.73 201.2 43.41 204.21 43.41C204.36 43.41 204.51 43.41 204.67 43.43C206.07 43.54 207.31 44.13 208.25 45.03C209.05 42.73 211.23 41.13 213.73 41.13ZM213.73 38C211.22 38 208.89 39.05 207.23 40.81C206.49 40.54 205.7 40.37 204.91 40.31C204.67 40.29 204.44 40.28 204.21 40.28C199.57 40.28 195.66 43.9 195.3 48.53C195.11 50.91 195.87 53.22 197.42 55.04C198.97 56.86 201.14 57.96 203.52 58.14C203.75 58.16 203.99 58.17 204.22 58.17C206.73 58.17 209.06 57.12 210.72 55.36C211.46 55.63 212.25 55.8 213.04 55.86C213.27 55.88 213.51 55.89 213.74 55.89C214.64 55.89 215.53 55.75 216.38 55.49C217.84 57.82 220.35 59.45 223.27 59.68C223.51 59.7 223.74 59.71 223.97 59.71C228.61 59.71 232.52 56.09 232.88 51.46C233.07 49.08 232.31 46.77 230.76 44.95C229.21 43.13 227.04 42.03 224.66 41.85C224.43 41.83 224.19 41.82 223.96 41.82C223.06 41.82 222.17 41.96 221.32 42.22C219.86 39.89 217.35 38.26 214.43 38.03C214.2 38.01 213.96 38 213.73 38Z" fill="#071314"/>
<path d="M205.26 55.9199C208.916 55.9199 211.88 52.9561 211.88 49.2999C211.88 45.6438 208.916 42.6799 205.26 42.6799C201.604 42.6799 198.64 45.6438 198.64 49.2999C198.64 52.9561 201.604 55.9199 205.26 55.9199Z" fill="#ED2156"/>
<path d="M213.77 54.3699C217.426 54.3699 220.39 51.406 220.39 47.7499C220.39 44.0938 217.426 41.1299 213.77 41.1299C210.114 41.1299 207.15 44.0938 207.15 47.7499C207.15 51.406 210.114 54.3699 213.77 54.3699Z" fill="#ED2156"/>
<path d="M223.3 57.6699C226.956 57.6699 229.92 54.7061 229.92 51.0499C229.92 47.3938 226.956 44.4299 223.3 44.4299C219.644 44.4299 216.68 47.3938 216.68 51.0499C216.68 54.7061 219.644 57.6699 223.3 57.6699Z" fill="#ED2156"/>
<path d="M178.5 264.99C182.151 264.99 185.11 262.031 185.11 258.38C185.11 254.729 182.151 251.77 178.5 251.77C174.849 251.77 171.89 254.729 171.89 258.38C171.89 262.031 174.849 264.99 178.5 264.99Z" fill="#ED2156"/>
<path d="M170.95 260.67C174.457 260.67 177.3 257.827 177.3 254.32C177.3 250.813 174.457 247.97 170.95 247.97C167.443 247.97 164.6 250.813 164.6 254.32C164.6 257.827 167.443 260.67 170.95 260.67Z" fill="#ED2156"/>
<path d="M76.99 94.4301C75.09 52.5601 80.12 29.1201 81.85 22.4801C82.38 20.4701 82.73 18.4001 82.83 16.3101C83.12 10.3001 82.09 0.870078 71.21 9.92008C56.06 22.5101 43.46 30.3201 32.19 38.2901C9.31002 54.4701 -53.34 92.2001 -62.27 151.32C-63.39 158.73 -61.4 166.09 -57.74 172.64C-47.67 190.61 -33.62 194.59 -27.8 197.39C-26.47 198.03 -24.91 198.9 -23.1 199.65C-13.94 203.48 22.43 226.13 55.03 183.61C55.66 182.79 56.11 182.1 57.87 179.28C71.83 156.92 78.92 136.99 76.98 94.4401L76.99 94.4301Z" fill="#BFB8AD"/>
<path d="M-34.82 237.89C-34.82 237.89 -40.69 236.17 -37.4 226.15C-34.1 216.13 -26.54 199.07 -32.22 190.88C-37.86 182.74 -60.78 162.02 -47.44 145.43C-47.29 145.25 -47.12 145.07 -46.94 144.91C-39.24 138.46 -33.01 156.92 -32.55 158.31C-32.53 158.37 -32.51 158.42 -32.49 158.48C-31.93 159.92 -24.9 177.66 -18.92 171.46C-12.94 165.26 -24.14 140.29 -24.14 140.29C-24.14 140.29 -33.59 117.09 -21.94 111.73C-10.29 106.37 -7.4 124.63 -6.39 134.43C-6.3 135.34 -5.61999 137.25 -5.42999 137.61C-4.42999 139.48 -2.74999 142.42 0.320007 138.06C4.21001 132.54 6.89 123.4 4.73 117.24C2.57 111.08 -4.56001 86.5801 4.95 81.7201C13.32 77.4401 13.32 93.5401 13.76 97.5701C13.91 98.9301 13.96 99.6101 14.36 100.21C15.22 101.49 17.05 103.24 20.32 102.26C24.6 100.98 25.34 96.7901 25.49 95.5601C25.52 95.3501 25.68 94.4001 25.74 94.1901C26.87 89.9901 34.09 68.5201 45.19 75.7501C56.43 83.0701 34.16 97.5401 31.63 99.1301C31.46 99.2401 31.31 99.3501 31.16 99.4901C29.85 100.66 23.92 106.31 30.74 106.58C31.16 106.6 32.57 106.41 32.97 106.28C36.18 105.29 51.89 100.7 54.14 108.98C56.62 118.16 35.69 122.57 24.22 120.83C14.75 119.39 9.71001 131.01 8.24001 135.1C7.82001 136.28 7.99001 137.64 8.82001 138.58C9.78001 139.66 11.51 140.25 14.49 137.54C19.91 132.61 41 132.49 40.05 142C39.1 151.5 28.87 160.27 11.22 160.04C-4.81 159.84 -12.42 176.72 -13.68 179.83C-13.84 180.22 -13.93 181.02 -13.99 181.64C-14.19 183.68 -13.27 188.55 -2.09 184.91C-1.93999 184.86 -1.8 184.81 -1.66 184.74C4.63 181.89 11.16 176.18 11.16 176.18C11.16 176.18 26.85 163.78 29.25 176.39C31.64 189 11.88 195.96 11.88 195.96C11.88 195.96 -0.199997 201.13 -14.03 199.69C-26.88 198.35 -26.07 209.6 -26.34 212.77C-26.42 213.73 -26.44 214.01 -26.45 214.18C-26.84 219.86 -28.68 240.12 -34.82 237.9V237.89Z" fill="url(#paint0_linear_270_2)"/>
<path d="M185.37 272.17C189.021 272.17 191.98 269.211 191.98 265.56C191.98 261.909 189.021 258.95 185.37 258.95C181.719 258.95 178.76 261.909 178.76 265.56C178.76 269.211 181.719 272.17 185.37 272.17Z" fill="#ED2156"/>
<path d="M-21.584 308.149C-22.5869 289.797 -12.3296 275.591 -9.48822 270.031C-9.07747 269.223 -8.47486 268.535 -7.7164 268.031C20.0478 249.417 -47.9302 334.576 36.1145 339.548C51.317 339.527 13.6149 308.442 25.4562 275.812C25.5621 275.517 25.6366 275.205 25.6987 274.897C26.697 269.877 34.7171 259.084 34.3679 273.75C30.5945 323.272 62.7886 338.442 62.7886 338.442C68.628 342.507 85.5081 335.497 95.0132 330.98C97.8677 329.621 98.089 325.648 95.4097 323.987C68.2503 310.701 62.0908 273.526 77.0622 286.016C77.7128 286.556 78.2329 287.251 78.5621 288.023C85.8068 305.205 106.823 332.874 132.123 308.654C133.873 307.33 134.182 304.879 132.896 303.099C129.554 298.481 130.02 290.256 130.416 286.706C130.47 286.247 130.477 285.781 130.393 285.327C127.824 271.346 99.3708 270.369 100.416 270.749C99.3185 271.862 84.0724 268.865 93.0254 262.999C99.1065 259.013 114.524 261.128 123.814 262.904C125.186 263.168 126.647 262.931 127.77 262.082C134.373 257.112 123.045 239.866 117.749 233.159C117.575 232.934 117.392 232.725 117.183 232.543C107.062 223.405 68.7421 235.46 63.1272 237.303C58.8589 237.852 43.7988 236.077 59.5173 225.741C72.039 217.506 98.8788 217.84 112.78 218.669C114.114 218.745 115.449 218.362 116.449 217.474C125.316 209.535 92.9736 192.84 86.0233 186.271C69.7011 170.931 14.2234 230.357 19.0071 213.213C26.3114 189.23 69.0391 176.383 58.78 168.815C21.7465 149.965 16.6859 179.427 10.4902 197.16C10.2243 197.916 9.79242 198.597 9.22139 199.156C-1.0052 209.175 -0.108106 189.638 1.97402 179.449C2.22696 178.206 2.06116 176.911 1.4303 175.809C-4.75629 165.139 -27.6654 194.307 -15.6963 211.691C-15.1235 212.531 -14.7913 213.535 -14.8205 214.551C-14.9785 220.126 -21.7712 220 -30.0386 223.286C-46.1512 227.773 -50.1524 262.506 -43.2723 253.084C-36.3923 243.661 -17.7171 239.745 -14.4509 243.714C-11.97 247.013 -16.6503 250.393 -19.4913 251.655C-20.0361 251.896 -20.6156 252.033 -21.2063 252.081C-56.0888 254.932 -48.3817 294.704 -28.3309 311.148C-25.7829 313.693 -21.3513 311.766 -21.5526 308.167L-21.584 308.149ZM69.6151 249.596C75.678 249.721 76.7574 252.28 76.4718 254.599C76.2054 256.794 74.6314 258.594 72.5915 259.46C68.4857 261.218 60.4759 264.036 59.3792 259.85C57.964 252.487 65.5341 250.273 68.1228 249.742C68.6068 249.644 69.1087 249.588 69.6027 249.599L69.6151 249.596ZM25.8867 240.264C25.0996 237.34 25.7492 228.031 30.1742 228.939C34.7458 230.191 34.8656 234.443 34.4842 237.021C34.2896 238.307 33.8458 239.555 33.135 240.65C29.3928 246.435 26.3675 242.01 25.8912 240.256L25.8867 240.264ZM51.3613 264.885C52.4057 267.633 52.6872 276.683 48.3336 276.233C44.2205 275.546 43.4014 272.114 43.374 269.594C43.3537 267.736 43.8252 265.857 44.8655 264.314C47.8213 259.884 50.7871 263.356 51.3691 264.89L51.3613 264.885ZM0.286531 250.676C0.527446 246.213 1.52857 237.783 5.7728 238.661C11.9417 240.349 11.8585 246.248 11.2911 249.532C11.0379 250.994 10.5041 252.399 9.71895 253.66C7.17792 257.713 4.71821 257.472 2.93545 256.304C1.0865 255.088 0.169475 252.883 0.286531 250.676Z" fill="#EE2256"/>
</g>
<defs>
<linearGradient id="paint0_linear_270_2" x1="57.0032" y1="85.967" x2="-73.0268" y2="234.29" gradientUnits="userSpaceOnUse">
<stop stop-color="#093A3E"/>
<stop offset="0.87" stop-color="#001011"/>
</linearGradient>
<clipPath id="clip0_270_2">
<rect width="516.1" height="352.3" fill="white" transform="translate(-227)"/>
</clipPath>
</defs>
</svg>